<?xml version="1.0" encoding="UTF-8" standalone="no"?>
<!-- Created with Inkscape (http://www.inkscape.org/) -->

<svg
   xmlns:dc="http://purl.org/dc/elements/1.1/"
   xmlns:cc="http://creativecommons.org/ns#"
   xmlns:rdf="http://www.w3.org/1999/02/22-rdf-syntax-ns#"
   xmlns:svg="http://www.w3.org/2000/svg"
   xmlns="http://www.w3.org/2000/svg"
   xmlns:sodipodi="http://sodipodi.sourceforge.net/DTD/sodipodi-0.dtd"
   xmlns:inkscape="http://www.inkscape.org/namespaces/inkscape"
   width="506.1875"
   height="501.71875"
   id="svg2"
   version="1.1"
   inkscape:version="0.48.3.1 r9886"
   sodipodi:docname="functionalities.svg">
  <defs
     id="defs4" />
  <sodipodi:namedview
     id="base"
     pagecolor="#ffffff"
     bordercolor="#666666"
     borderopacity="1.0"
     inkscape:pageopacity="0.0"
     inkscape:pageshadow="2"
     inkscape:zoom="0.98994949"
     inkscape:cx="226.52916"
     inkscape:cy="213.24615"
     inkscape:document-units="px"
     inkscape:current-layer="layer1"
     showgrid="false"
     showguides="true"
     inkscape:guide-bbox="true"
     fit-margin-top="0"
     fit-margin-left="0"
     fit-margin-right="0"
     fit-margin-bottom="0"
     inkscape:window-width="1253"
     inkscape:window-height="926"
     inkscape:window-x="131"
     inkscape:window-y="43"
     inkscape:window-maximized="0" />
  <metadata
     id="metadata7">
    <rdf:RDF>
      <cc:Work
         rdf:about="">
        <dc:format>image/svg+xml</dc:format>
        <dc:type
           rdf:resource="http://purl.org/dc/dcmitype/StillImage" />
        <dc:title></dc:title>
      </cc:Work>
    </rdf:RDF>
  </metadata>
  <g
     inkscape:label="Livello 1"
     inkscape:groupmode="layer"
     id="layer1"
     transform="translate(-37.0625,-36.40625)">
    <flowRoot
       xml:space="preserve"
       id="flowRoot2985"
       style="font-size:40px;font-style:normal;font-variant:normal;font-weight:normal;font-stretch:normal;line-height:125%;letter-spacing:0px;word-spacing:0px;fill:#000000;fill-opacity:1;stroke:none;font-family:Open Sans;-inkscape-font-specification:Open Sans"><flowRegion
         id="flowRegion2987"><rect
           id="rect2989"
           width="1051.4286"
           height="394.28571"
           x="-160"
           y="306.64789"
           style="font-style:normal;font-variant:normal;font-weight:normal;font-stretch:normal;font-family:Open Sans;-inkscape-font-specification:Open Sans" /></flowRegion><flowPara
         id="flowPara2991" /></flowRoot>    <flowRoot
       xml:space="preserve"
       id="flowRoot2993"
       style="font-size:40px;font-style:normal;font-weight:normal;line-height:125%;letter-spacing:0px;word-spacing:0px;fill:#000000;fill-opacity:1;stroke:none;font-family:Sans"
       transform="translate(358.07401,124.89487)"
       inkscape:export-filename="/media/fede/Data/Universita/Tesi/mole.io-tesi/presentazione/img/table.png"
       inkscape:export-xdpi="90"
       inkscape:export-ydpi="90"><flowRegion
         id="flowRegion2995"><rect
           id="rect2997"
           width="1094.2858"
           height="474.28571"
           x="-314.28571"
           y="212.36218"
           style="fill:#000000" /></flowRegion><flowPara
         id="flowPara2999"
         style="font-size:20px;font-style:normal;font-variant:normal;font-weight:300;font-stretch:normal;text-align:start;line-height:125%;writing-mode:lr-tb;text-anchor:start;font-family:Open Sans;-inkscape-font-specification:Open Sans Light;fill:#000000">Open source</flowPara></flowRoot>    <path
       style="fill:#000000;stroke:#000000;stroke-width:1;stroke-linecap:butt;stroke-linejoin:miter;stroke-miterlimit:4;stroke-opacity:1;stroke-dasharray:none"
       d="m 37.064311,320.93361 506.198589,0"
       id="path3001"
       inkscape:connector-curvature="0"
       inkscape:export-filename="/media/fede/Data/Universita/Tesi/mole.io-tesi/presentazione/img/table.png"
       inkscape:export-xdpi="90"
       inkscape:export-ydpi="90" />
    <flowRoot
       transform="translate(359.50258,166.50201)"
       style="font-size:40px;font-style:normal;font-weight:normal;line-height:125%;letter-spacing:0px;word-spacing:0px;fill:#000000;fill-opacity:1;stroke:none;font-family:Sans"
       id="flowRoot3003"
       xml:space="preserve"
       inkscape:export-filename="/media/fede/Data/Universita/Tesi/mole.io-tesi/presentazione/img/table.png"
       inkscape:export-xdpi="90"
       inkscape:export-ydpi="90"><flowRegion
         id="flowRegion3005"><rect
           y="212.36218"
           x="-314.28571"
           height="474.28571"
           width="1094.2858"
           id="rect3007"
           style="fill:#000000" /></flowRegion><flowPara
         style="font-size:20px;font-style:normal;font-variant:normal;font-weight:300;font-stretch:normal;text-align:start;line-height:125%;writing-mode:lr-tb;text-anchor:start;font-family:Open Sans;-inkscape-font-specification:Open Sans Light;fill:#000000"
         id="flowPara3009">Persistenza dati</flowPara></flowRoot>    <flowRoot
       xml:space="preserve"
       id="flowRoot3011"
       style="font-size:40px;font-style:normal;font-weight:normal;line-height:125%;letter-spacing:0px;word-spacing:0px;fill:#000000;fill-opacity:1;stroke:none;font-family:Sans"
       transform="translate(359.50258,208.10915)"
       inkscape:export-filename="/media/fede/Data/Universita/Tesi/mole.io-tesi/presentazione/img/table.png"
       inkscape:export-xdpi="90"
       inkscape:export-ydpi="90"><flowRegion
         id="flowRegion3013"><rect
           id="rect3015"
           width="1094.2858"
           height="474.28571"
           x="-314.28571"
           y="212.36218"
           style="fill:#000000" /></flowRegion><flowPara
         style="font-size:20px;font-style:normal;font-variant:normal;font-weight:300;font-stretch:normal;text-align:start;line-height:125%;writing-mode:lr-tb;text-anchor:start;font-family:Open Sans;-inkscape-font-specification:Open Sans Light;fill:#000000"
         id="flowPara3019">Dati utente strutturati</flowPara></flowRoot>    <flowRoot
       transform="translate(359.50258,245.7163)"
       style="font-size:40px;font-style:normal;font-weight:normal;line-height:125%;letter-spacing:0px;word-spacing:0px;fill:#000000;fill-opacity:1;stroke:none;font-family:Sans"
       id="flowRoot3023"
       xml:space="preserve"
       inkscape:export-filename="/media/fede/Data/Universita/Tesi/mole.io-tesi/presentazione/img/table.png"
       inkscape:export-xdpi="90"
       inkscape:export-ydpi="90"><flowRegion
         id="flowRegion3025"><rect
           y="212.36218"
           x="-314.28571"
           height="474.28571"
           width="1094.2858"
           id="rect3027"
           style="fill:#000000" /></flowRegion><flowPara
         id="flowPara3029"
         style="font-size:20px;font-style:normal;font-variant:normal;font-weight:300;font-stretch:normal;text-align:start;line-height:125%;writing-mode:lr-tb;text-anchor:start;font-family:Open Sans;-inkscape-font-specification:Open Sans Light;fill:#000000">Aggregazione automatica</flowPara></flowRoot>    <flowRoot
       xml:space="preserve"
       id="flowRoot3031"
       style="font-size:40px;font-style:normal;font-weight:normal;line-height:125%;letter-spacing:0px;word-spacing:0px;fill:#000000;fill-opacity:1;stroke:none;font-family:Sans"
       transform="translate(359.50258,291.32344)"
       inkscape:export-filename="/media/fede/Data/Universita/Tesi/mole.io-tesi/presentazione/img/table.png"
       inkscape:export-xdpi="90"
       inkscape:export-ydpi="90"><flowRegion
         id="flowRegion3033"><rect
           id="rect3035"
           width="1094.2858"
           height="474.28571"
           x="-314.28571"
           y="212.36218"
           style="fill:#000000" /></flowRegion><flowPara
         style="font-size:20px;font-style:normal;font-variant:normal;font-weight:300;font-stretch:normal;text-align:start;line-height:125%;writing-mode:lr-tb;text-anchor:start;font-family:Open Sans;-inkscape-font-specification:Open Sans Light;fill:#000000"
         id="flowPara3037">SaaS</flowPara></flowRoot>    <flowRoot
       transform="matrix(0,-1,1,0,108.93405,-6.2331813)"
       style="font-size:40px;font-style:normal;font-weight:normal;line-height:125%;letter-spacing:0px;word-spacing:0px;fill:#000000;fill-opacity:1;stroke:none;font-family:Sans"
       id="flowRoot3039"
       xml:space="preserve"
       inkscape:export-filename="/media/fede/Data/Universita/Tesi/mole.io-tesi/presentazione/img/table.png"
       inkscape:export-xdpi="90"
       inkscape:export-ydpi="90"><flowRegion
         id="flowRegion3041"><rect
           y="212.36218"
           x="-314.28571"
           height="474.28571"
           width="1094.2858"
           id="rect3043"
           style="fill:#000000" /></flowRegion><flowPara
         style="font-size:20px;font-style:normal;font-variant:normal;font-weight:300;font-stretch:normal;text-align:start;line-height:125%;writing-mode:lr-tb;text-anchor:start;font-family:Open Sans;-inkscape-font-specification:Open Sans Light;fill:#000000"
         id="flowPara3045">Airbrake</flowPara></flowRoot>    <flowRoot
       xml:space="preserve"
       id="flowRoot3047"
       style="font-size:40px;font-style:normal;font-weight:normal;line-height:125%;letter-spacing:0px;word-spacing:0px;fill:#000000;fill-opacity:1;stroke:none;font-family:Sans"
       transform="matrix(0,-1,1,0,150.68521,-4.2116969)"
       inkscape:export-filename="/media/fede/Data/Universita/Tesi/mole.io-tesi/presentazione/img/table.png"
       inkscape:export-xdpi="90"
       inkscape:export-ydpi="90"><flowRegion
         id="flowRegion3049"><rect
           id="rect3051"
           width="1094.2858"
           height="474.28571"
           x="-314.28571"
           y="212.36218"
           style="fill:#000000" /></flowRegion><flowPara
         id="flowPara3053"
         style="font-size:20px;font-style:normal;font-variant:normal;font-weight:300;font-stretch:normal;text-align:start;line-height:125%;writing-mode:lr-tb;text-anchor:start;font-family:Open Sans;-inkscape-font-specification:Open Sans Light;fill:#000000">Log.io</flowPara></flowRoot>    <flowRoot
       transform="matrix(0,-1,1,0,197.73908,-4.2116969)"
       style="font-size:40px;font-style:normal;font-weight:normal;line-height:125%;letter-spacing:0px;word-spacing:0px;fill:#000000;fill-opacity:1;stroke:none;font-family:Sans"
       id="flowRoot3055"
       xml:space="preserve"
       inkscape:export-filename="/media/fede/Data/Universita/Tesi/mole.io-tesi/presentazione/img/table.png"
       inkscape:export-xdpi="90"
       inkscape:export-ydpi="90"><flowRegion
         id="flowRegion3057"><rect
           y="212.36218"
           x="-314.28571"
           height="474.28571"
           width="1094.2858"
           id="rect3059"
           style="fill:#000000" /></flowRegion><flowPara
         style="font-size:20px;font-style:normal;font-variant:normal;font-weight:300;font-stretch:normal;text-align:start;line-height:125%;writing-mode:lr-tb;text-anchor:start;font-family:Open Sans;-inkscape-font-specification:Open Sans Light;fill:#000000"
         id="flowPara3061">Rollbar</flowPara></flowRoot>    <flowRoot
       xml:space="preserve"
       id="flowRoot3063"
       style="font-size:40px;font-style:normal;font-weight:normal;line-height:125%;letter-spacing:0px;word-spacing:0px;fill:#000000;fill-opacity:1;stroke:none;font-family:Sans"
       transform="matrix(0,-1,1,0,239.83689,-4.2116969)"
       inkscape:export-filename="/media/fede/Data/Universita/Tesi/mole.io-tesi/presentazione/img/table.png"
       inkscape:export-xdpi="90"
       inkscape:export-ydpi="90"><flowRegion
         id="flowRegion3065"><rect
           id="rect3067"
           width="1094.2858"
           height="474.28571"
           x="-314.28571"
           y="212.36218"
           style="fill:#000000" /></flowRegion><flowPara
         id="flowPara3069"
         style="font-size:20px;font-style:normal;font-variant:normal;font-weight:300;font-stretch:normal;text-align:start;line-height:125%;writing-mode:lr-tb;text-anchor:start;font-family:Open Sans;-inkscape-font-specification:Open Sans Light;fill:#000000">Papertrail</flowPara></flowRoot>    <flowRoot
       transform="matrix(0,-1,1,0,285.35269,-4.2116969)"
       style="font-size:40px;font-style:normal;font-weight:normal;line-height:125%;letter-spacing:0px;word-spacing:0px;fill:#000000;fill-opacity:1;stroke:none;font-family:Sans"
       id="flowRoot3071"
       xml:space="preserve"
       inkscape:export-filename="/media/fede/Data/Universita/Tesi/mole.io-tesi/presentazione/img/table.png"
       inkscape:export-xdpi="90"
       inkscape:export-ydpi="90"><flowRegion
         id="flowRegion3073"><rect
           y="212.36218"
           x="-314.28571"
           height="474.28571"
           width="1094.2858"
           id="rect3075"
           style="fill:#000000" /></flowRegion><flowPara
         style="font-size:20px;font-style:normal;font-variant:normal;font-weight:300;font-stretch:normal;text-align:start;line-height:125%;writing-mode:lr-tb;text-anchor:start;font-family:Open Sans;-inkscape-font-specification:Open Sans Light;fill:#000000"
         id="flowPara3077">Fluentd, ElasticSearch, Kibana</flowPara></flowRoot>    <path
       inkscape:connector-curvature="0"
       id="path3079"
       d="m 295.71429,36.391834 0,501.730006"
       style="fill:#000000;stroke:#000000;stroke-width:1;stroke-linecap:butt;stroke-linejoin:miter;stroke-miterlimit:4;stroke-opacity:1;stroke-dasharray:none"
       inkscape:export-filename="/media/fede/Data/Universita/Tesi/mole.io-tesi/presentazione/img/table.png"
       inkscape:export-xdpi="90"
       inkscape:export-ydpi="90" />
    <path
       inkscape:export-ydpi="90"
       inkscape:export-xdpi="90"
       inkscape:export-filename="/media/fede/Data/Universita/Tesi/mole.io-tesi/presentazione/img/table.png"
       inkscape:connector-curvature="0"
       id="path3096"
       d="m 327.076,390.64655 c -0.16998,-0.10196 -0.25496,-0.26346 -0.25492,-0.48439 -4e-5,-0.22098 0.0849,-0.41647 0.25492,-0.58645 l 1.07083,-0.81586 c 0.37389,-0.37395 0.67987,-0.37395 0.91788,0 l 2.7025,2.6006 5.86405,-8.5666 c 0.068,-0.16999 0.17846,-0.272 0.33147,-0.30598 0.15296,-0.0336 0.31447,5e-5 0.48444,0.10201 l 1.2748,0.81586 c 0.16993,0.13601 0.27194,0.30597 0.30592,0.50994 0.0336,0.20396 0,0.39091 -0.10196,0.5609 l -6.88387,10.14732 c -0.3399,0.33996 -0.6629,0.50993 -0.96882,0.50993 -0.16999,0 -0.33996,-0.0254 -0.50994,-0.0765 -0.16993,-0.0512 -0.30598,-0.16149 -0.40794,-0.33147 z"
       style="font-size:40px;font-style:normal;font-variant:normal;font-weight:normal;font-stretch:normal;line-height:125%;letter-spacing:0px;word-spacing:0px;fill:#000000;fill-opacity:1;stroke:none;display:inline;font-family:metroicons8-3;-inkscape-font-specification:metroicons8-3" />
    <path
       inkscape:export-ydpi="90"
       inkscape:export-xdpi="90"
       inkscape:export-filename="/media/fede/Data/Universita/Tesi/mole.io-tesi/presentazione/img/table.png"
       inkscape:connector-curvature="0"
       id="path3100"
       d="m 327.076,474.47022 c -0.16998,-0.10196 -0.25496,-0.26346 -0.25492,-0.48439 -4e-5,-0.22098 0.0849,-0.41647 0.25492,-0.58645 l 1.07083,-0.81586 c 0.37389,-0.37395 0.67987,-0.37395 0.91788,0 l 2.7025,2.6006 5.86405,-8.5666 c 0.068,-0.16999 0.17846,-0.272 0.33147,-0.30598 0.15296,-0.0336 0.31447,5e-5 0.48444,0.10201 l 1.2748,0.81586 c 0.16993,0.13601 0.27194,0.30597 0.30592,0.50994 0.0336,0.20396 0,0.39091 -0.10196,0.5609 l -6.88387,10.14732 c -0.3399,0.33996 -0.6629,0.50993 -0.96882,0.50993 -0.16999,0 -0.33996,-0.0254 -0.50994,-0.0765 -0.16993,-0.0512 -0.30598,-0.16149 -0.40794,-0.33147 z"
       style="font-size:40px;font-style:normal;font-variant:normal;font-weight:normal;font-stretch:normal;line-height:125%;letter-spacing:0px;word-spacing:0px;fill:#000000;fill-opacity:1;stroke:none;display:inline;font-family:metroicons8-3;-inkscape-font-specification:metroicons8-3" />
    <path
       style="font-size:40px;font-style:normal;font-variant:normal;font-weight:normal;font-stretch:normal;line-height:125%;letter-spacing:0px;word-spacing:0px;fill:#000000;fill-opacity:1;stroke:none;display:inline;font-family:metroicons8-3;-inkscape-font-specification:metroicons8-3"
       d="m 327.076,515.46798 c -0.16998,-0.10196 -0.25496,-0.26346 -0.25492,-0.48439 -4e-5,-0.22098 0.0849,-0.41647 0.25492,-0.58645 l 1.07083,-0.81586 c 0.37389,-0.37395 0.67987,-0.37395 0.91788,0 l 2.7025,2.6006 5.86405,-8.5666 c 0.068,-0.16999 0.17846,-0.272 0.33147,-0.30598 0.15296,-0.0336 0.31447,5e-5 0.48444,0.10201 l 1.2748,0.81586 c 0.16993,0.13601 0.27194,0.30597 0.30592,0.50994 0.0336,0.20396 0,0.39091 -0.10196,0.5609 l -6.88387,10.14732 c -0.3399,0.33996 -0.6629,0.50993 -0.96882,0.50993 -0.16999,0 -0.33996,-0.0254 -0.50994,-0.0765 -0.16993,-0.0512 -0.30598,-0.16149 -0.40794,-0.33147 z"
       id="path3102"
       inkscape:connector-curvature="0"
       inkscape:export-filename="/media/fede/Data/Universita/Tesi/mole.io-tesi/presentazione/img/table.png"
       inkscape:export-xdpi="90"
       inkscape:export-ydpi="90" />
    <path
       inkscape:export-ydpi="90"
       inkscape:export-xdpi="90"
       inkscape:export-filename="/media/fede/Data/Universita/Tesi/mole.io-tesi/presentazione/img/table.png"
       inkscape:connector-curvature="0"
       id="path3113"
       d="m 371.47853,353.64879 c -0.16998,-0.10196 -0.25496,-0.26346 -0.25492,-0.48439 -4e-5,-0.22098 0.0849,-0.41647 0.25492,-0.58645 l 1.07083,-0.81586 c 0.37389,-0.37395 0.67987,-0.37395 0.91788,0 l 2.7025,2.6006 5.86405,-8.5666 c 0.068,-0.16999 0.17846,-0.272 0.33147,-0.30598 0.15296,-0.0336 0.31447,5e-5 0.48444,0.10201 l 1.2748,0.81586 c 0.16993,0.13601 0.27194,0.30597 0.30592,0.50994 0.0336,0.20396 0,0.39091 -0.10196,0.5609 l -6.88387,10.14732 c -0.3399,0.33996 -0.6629,0.50993 -0.96882,0.50993 -0.16999,0 -0.33996,-0.0254 -0.50994,-0.0765 -0.16993,-0.0512 -0.30598,-0.16149 -0.40794,-0.33147 z"
       style="font-size:40px;font-style:normal;font-variant:normal;font-weight:normal;font-stretch:normal;line-height:125%;letter-spacing:0px;word-spacing:0px;fill:#000000;fill-opacity:1;stroke:none;display:inline;font-family:metroicons8-3;-inkscape-font-specification:metroicons8-3" />
    <path
       inkscape:export-ydpi="90"
       inkscape:export-xdpi="90"
       inkscape:export-filename="/media/fede/Data/Universita/Tesi/mole.io-tesi/presentazione/img/table.png"
       inkscape:connector-curvature="0"
       id="path3121"
       d="m 371.47853,515.46798 c -0.16998,-0.10196 -0.25496,-0.26346 -0.25492,-0.48439 -4e-5,-0.22098 0.0849,-0.41647 0.25492,-0.58645 l 1.07083,-0.81586 c 0.37389,-0.37395 0.67987,-0.37395 0.91788,0 l 2.7025,2.6006 5.86405,-8.5666 c 0.068,-0.16999 0.17846,-0.272 0.33147,-0.30598 0.15296,-0.0336 0.31447,5e-5 0.48444,0.10201 l 1.2748,0.81586 c 0.16993,0.13601 0.27194,0.30597 0.30592,0.50994 0.0336,0.20396 0,0.39091 -0.10196,0.5609 l -6.88387,10.14732 c -0.3399,0.33996 -0.6629,0.50993 -0.96882,0.50993 -0.16999,0 -0.33996,-0.0254 -0.50994,-0.0765 -0.16993,-0.0512 -0.30598,-0.16149 -0.40794,-0.33147 z"
       style="font-size:40px;font-style:normal;font-variant:normal;font-weight:normal;font-stretch:normal;line-height:125%;letter-spacing:0px;word-spacing:0px;fill:#000000;fill-opacity:1;stroke:none;display:inline;font-family:metroicons8-3;-inkscape-font-specification:metroicons8-3" />
    <path
       inkscape:export-ydpi="90"
       inkscape:export-xdpi="90"
       inkscape:export-filename="/media/fede/Data/Universita/Tesi/mole.io-tesi/presentazione/img/table.png"
       inkscape:connector-curvature="0"
       id="path3127"
       d="m 415.88103,390.64655 c -0.16998,-0.10196 -0.25496,-0.26346 -0.25492,-0.48439 -4e-5,-0.22098 0.0849,-0.41647 0.25492,-0.58645 l 1.07083,-0.81586 c 0.37389,-0.37395 0.67987,-0.37395 0.91788,0 l 2.7025,2.6006 5.86405,-8.5666 c 0.068,-0.16999 0.17846,-0.272 0.33147,-0.30598 0.15296,-0.0336 0.31447,5e-5 0.48444,0.10201 l 1.2748,0.81586 c 0.16993,0.13601 0.27194,0.30597 0.30592,0.50994 0.0336,0.20396 0,0.39091 -0.10196,0.5609 l -6.88387,10.14732 c -0.3399,0.33996 -0.6629,0.50993 -0.96882,0.50993 -0.16999,0 -0.33996,-0.0254 -0.50994,-0.0765 -0.16993,-0.0512 -0.30598,-0.16149 -0.40794,-0.33147 z"
       style="font-size:40px;font-style:normal;font-variant:normal;font-weight:normal;font-stretch:normal;line-height:125%;letter-spacing:0px;word-spacing:0px;fill:#000000;fill-opacity:1;stroke:none;display:inline;font-family:metroicons8-3;-inkscape-font-specification:metroicons8-3" />
    <path
       style="font-size:40px;font-style:normal;font-variant:normal;font-weight:normal;font-stretch:normal;line-height:125%;letter-spacing:0px;word-spacing:0px;fill:#000000;fill-opacity:1;stroke:none;display:inline;font-family:metroicons8-3;-inkscape-font-specification:metroicons8-3"
       d="m 415.88103,432.25369 c -0.16998,-0.10196 -0.25496,-0.26346 -0.25492,-0.48439 -4e-5,-0.22098 0.0849,-0.41647 0.25492,-0.58645 l 1.07083,-0.81586 c 0.37389,-0.37395 0.67987,-0.37395 0.91788,0 l 2.7025,2.6006 5.86405,-8.5666 c 0.068,-0.16999 0.17846,-0.272 0.33147,-0.30598 0.15296,-0.0336 0.31447,5e-5 0.48444,0.10201 l 1.2748,0.81586 c 0.16993,0.13601 0.27194,0.30597 0.30592,0.50994 0.0336,0.20396 0,0.39091 -0.10196,0.5609 l -6.88387,10.14732 c -0.3399,0.33996 -0.6629,0.50993 -0.96882,0.50993 -0.16999,0 -0.33996,-0.0254 -0.50994,-0.0765 -0.16993,-0.0512 -0.30598,-0.16149 -0.40794,-0.33147 z"
       id="path3129"
       inkscape:connector-curvature="0"
       inkscape:export-filename="/media/fede/Data/Universita/Tesi/mole.io-tesi/presentazione/img/table.png"
       inkscape:export-xdpi="90"
       inkscape:export-ydpi="90" />
    <path
       inkscape:export-ydpi="90"
       inkscape:export-xdpi="90"
       inkscape:export-filename="/media/fede/Data/Universita/Tesi/mole.io-tesi/presentazione/img/table.png"
       inkscape:connector-curvature="0"
       id="path3131"
       d="m 415.88103,474.47022 c -0.16998,-0.10196 -0.25496,-0.26346 -0.25492,-0.48439 -4e-5,-0.22098 0.0849,-0.41647 0.25492,-0.58645 l 1.07083,-0.81586 c 0.37389,-0.37395 0.67987,-0.37395 0.91788,0 l 2.7025,2.6006 5.86405,-8.5666 c 0.068,-0.16999 0.17846,-0.272 0.33147,-0.30598 0.15296,-0.0336 0.31447,5e-5 0.48444,0.10201 l 1.2748,0.81586 c 0.16993,0.13601 0.27194,0.30597 0.30592,0.50994 0.0336,0.20396 0,0.39091 -0.10196,0.5609 l -6.88387,10.14732 c -0.3399,0.33996 -0.6629,0.50993 -0.96882,0.50993 -0.16999,0 -0.33996,-0.0254 -0.50994,-0.0765 -0.16993,-0.0512 -0.30598,-0.16149 -0.40794,-0.33147 z"
       style="font-size:40px;font-style:normal;font-variant:normal;font-weight:normal;font-stretch:normal;line-height:125%;letter-spacing:0px;word-spacing:0px;fill:#000000;fill-opacity:1;stroke:none;display:inline;font-family:metroicons8-3;-inkscape-font-specification:metroicons8-3" />
    <path
       style="font-size:40px;font-style:normal;font-variant:normal;font-weight:normal;font-stretch:normal;line-height:125%;letter-spacing:0px;word-spacing:0px;fill:#000000;fill-opacity:1;stroke:none;display:inline;font-family:metroicons8-3;-inkscape-font-specification:metroicons8-3"
       d="m 415.88103,515.46798 c -0.16998,-0.10196 -0.25496,-0.26346 -0.25492,-0.48439 -4e-5,-0.22098 0.0849,-0.41647 0.25492,-0.58645 l 1.07083,-0.81586 c 0.37389,-0.37395 0.67987,-0.37395 0.91788,0 l 2.7025,2.6006 5.86405,-8.5666 c 0.068,-0.16999 0.17846,-0.272 0.33147,-0.30598 0.15296,-0.0336 0.31447,5e-5 0.48444,0.10201 l 1.2748,0.81586 c 0.16993,0.13601 0.27194,0.30597 0.30592,0.50994 0.0336,0.20396 0,0.39091 -0.10196,0.5609 l -6.88387,10.14732 c -0.3399,0.33996 -0.6629,0.50993 -0.96882,0.50993 -0.16999,0 -0.33996,-0.0254 -0.50994,-0.0765 -0.16993,-0.0512 -0.30598,-0.16149 -0.40794,-0.33147 z"
       id="path3133"
       inkscape:connector-curvature="0"
       inkscape:export-filename="/media/fede/Data/Universita/Tesi/mole.io-tesi/presentazione/img/table.png"
       inkscape:export-xdpi="90"
       inkscape:export-ydpi="90" />
    <path
       style="font-size:40px;font-style:normal;font-variant:normal;font-weight:normal;font-stretch:normal;line-height:125%;letter-spacing:0px;word-spacing:0px;fill:#000000;fill-opacity:1;stroke:none;display:inline;font-family:metroicons8-3;-inkscape-font-specification:metroicons8-3"
       d="m 460.28353,390.64655 c -0.16998,-0.10196 -0.25496,-0.26346 -0.25492,-0.48439 -4e-5,-0.22098 0.0849,-0.41647 0.25492,-0.58645 l 1.07083,-0.81586 c 0.37389,-0.37395 0.67987,-0.37395 0.91788,0 l 2.7025,2.6006 5.86405,-8.5666 c 0.068,-0.16999 0.17846,-0.272 0.33147,-0.30598 0.15296,-0.0336 0.31447,5e-5 0.48444,0.10201 l 1.2748,0.81586 c 0.16993,0.13601 0.27194,0.30597 0.30592,0.50994 0.0336,0.20396 0,0.39091 -0.10196,0.5609 l -6.88387,10.14732 c -0.3399,0.33996 -0.6629,0.50993 -0.96882,0.50993 -0.16999,0 -0.33996,-0.0254 -0.50994,-0.0765 -0.16993,-0.0512 -0.30598,-0.16149 -0.40794,-0.33147 z"
       id="path3139"
       inkscape:connector-curvature="0"
       inkscape:export-filename="/media/fede/Data/Universita/Tesi/mole.io-tesi/presentazione/img/table.png"
       inkscape:export-xdpi="90"
       inkscape:export-ydpi="90" />
    <path
       style="font-size:40px;font-style:normal;font-variant:normal;font-weight:normal;font-stretch:normal;line-height:125%;letter-spacing:0px;word-spacing:0px;fill:#000000;fill-opacity:1;stroke:none;display:inline;font-family:metroicons8-3;-inkscape-font-specification:metroicons8-3"
       d="m 460.28353,474.47022 c -0.16998,-0.10196 -0.25496,-0.26346 -0.25492,-0.48439 -4e-5,-0.22098 0.0849,-0.41647 0.25492,-0.58645 l 1.07083,-0.81586 c 0.37389,-0.37395 0.67987,-0.37395 0.91788,0 l 2.7025,2.6006 5.86405,-8.5666 c 0.068,-0.16999 0.17846,-0.272 0.33147,-0.30598 0.15296,-0.0336 0.31447,5e-5 0.48444,0.10201 l 1.2748,0.81586 c 0.16993,0.13601 0.27194,0.30597 0.30592,0.50994 0.0336,0.20396 0,0.39091 -0.10196,0.5609 l -6.88387,10.14732 c -0.3399,0.33996 -0.6629,0.50993 -0.96882,0.50993 -0.16999,0 -0.33996,-0.0254 -0.50994,-0.0765 -0.16993,-0.0512 -0.30598,-0.16149 -0.40794,-0.33147 z"
       id="path3143"
       inkscape:connector-curvature="0"
       inkscape:export-filename="/media/fede/Data/Universita/Tesi/mole.io-tesi/presentazione/img/table.png"
       inkscape:export-xdpi="90"
       inkscape:export-ydpi="90" />
    <path
       inkscape:export-ydpi="90"
       inkscape:export-xdpi="90"
       inkscape:export-filename="/media/fede/Data/Universita/Tesi/mole.io-tesi/presentazione/img/table.png"
       inkscape:connector-curvature="0"
       id="path3145"
       d="m 460.28353,515.46798 c -0.16998,-0.10196 -0.25496,-0.26346 -0.25492,-0.48439 -4e-5,-0.22098 0.0849,-0.41647 0.25492,-0.58645 l 1.07083,-0.81586 c 0.37389,-0.37395 0.67987,-0.37395 0.91788,0 l 2.7025,2.6006 5.86405,-8.5666 c 0.068,-0.16999 0.17846,-0.272 0.33147,-0.30598 0.15296,-0.0336 0.31447,5e-5 0.48444,0.10201 l 1.2748,0.81586 c 0.16993,0.13601 0.27194,0.30597 0.30592,0.50994 0.0336,0.20396 0,0.39091 -0.10196,0.5609 l -6.88387,10.14732 c -0.3399,0.33996 -0.6629,0.50993 -0.96882,0.50993 -0.16999,0 -0.33996,-0.0254 -0.50994,-0.0765 -0.16993,-0.0512 -0.30598,-0.16149 -0.40794,-0.33147 z"
       style="font-size:40px;font-style:normal;font-variant:normal;font-weight:normal;font-stretch:normal;line-height:125%;letter-spacing:0px;word-spacing:0px;fill:#000000;fill-opacity:1;stroke:none;display:inline;font-family:metroicons8-3;-inkscape-font-specification:metroicons8-3" />
    <path
       style="font-size:40px;font-style:normal;font-variant:normal;font-weight:normal;font-stretch:normal;line-height:125%;letter-spacing:0px;word-spacing:0px;fill:#000000;fill-opacity:1;stroke:none;display:inline;font-family:metroicons8-3;-inkscape-font-specification:metroicons8-3"
       d="m 504.68604,353.64879 c -0.16998,-0.10196 -0.25496,-0.26346 -0.25492,-0.48439 -4e-5,-0.22098 0.0849,-0.41647 0.25492,-0.58645 l 1.07083,-0.81586 c 0.37389,-0.37395 0.67987,-0.37395 0.91788,0 l 2.7025,2.6006 5.86405,-8.5666 c 0.068,-0.16999 0.17846,-0.272 0.33147,-0.30598 0.15296,-0.0336 0.31447,5e-5 0.48444,0.10201 l 1.2748,0.81586 c 0.16993,0.13601 0.27194,0.30597 0.30592,0.50994 0.0336,0.20396 0,0.39091 -0.10196,0.5609 l -6.88387,10.14732 c -0.3399,0.33996 -0.6629,0.50993 -0.96882,0.50993 -0.16999,0 -0.33996,-0.0254 -0.50994,-0.0765 -0.16993,-0.0512 -0.30598,-0.16149 -0.40794,-0.33147 z"
       id="path3149"
       inkscape:connector-curvature="0"
       inkscape:export-filename="/media/fede/Data/Universita/Tesi/mole.io-tesi/presentazione/img/table.png"
       inkscape:export-xdpi="90"
       inkscape:export-ydpi="90" />
    <path
       inkscape:export-ydpi="90"
       inkscape:export-xdpi="90"
       inkscape:export-filename="/media/fede/Data/Universita/Tesi/mole.io-tesi/presentazione/img/table.png"
       inkscape:connector-curvature="0"
       id="path3151"
       d="m 504.68604,390.64655 c -0.16998,-0.10196 -0.25496,-0.26346 -0.25492,-0.48439 -4e-5,-0.22098 0.0849,-0.41647 0.25492,-0.58645 l 1.07083,-0.81586 c 0.37389,-0.37395 0.67987,-0.37395 0.91788,0 l 2.7025,2.6006 5.86405,-8.5666 c 0.068,-0.16999 0.17846,-0.272 0.33147,-0.30598 0.15296,-0.0336 0.31447,5e-5 0.48444,0.10201 l 1.2748,0.81586 c 0.16993,0.13601 0.27194,0.30597 0.30592,0.50994 0.0336,0.20396 0,0.39091 -0.10196,0.5609 l -6.88387,10.14732 c -0.3399,0.33996 -0.6629,0.50993 -0.96882,0.50993 -0.16999,0 -0.33996,-0.0254 -0.50994,-0.0765 -0.16993,-0.0512 -0.30598,-0.16149 -0.40794,-0.33147 z"
       style="font-size:40px;font-style:normal;font-variant:normal;font-weight:normal;font-stretch:normal;line-height:125%;letter-spacing:0px;word-spacing:0px;fill:#000000;fill-opacity:1;stroke:none;display:inline;font-family:metroicons8-3;-inkscape-font-specification:metroicons8-3" />
    <path
       style="font-size:40px;font-style:normal;font-variant:normal;font-weight:normal;font-stretch:normal;line-height:125%;letter-spacing:0px;word-spacing:0px;fill:#000000;fill-opacity:1;stroke:none;display:inline;font-family:metroicons8-3;-inkscape-font-specification:metroicons8-3"
       d="m 504.68604,432.25369 c -0.16998,-0.10196 -0.25496,-0.26346 -0.25492,-0.48439 -4e-5,-0.22098 0.0849,-0.41647 0.25492,-0.58645 l 1.07083,-0.81586 c 0.37389,-0.37395 0.67987,-0.37395 0.91788,0 l 2.7025,2.6006 5.86405,-8.5666 c 0.068,-0.16999 0.17846,-0.272 0.33147,-0.30598 0.15296,-0.0336 0.31447,5e-5 0.48444,0.10201 l 1.2748,0.81586 c 0.16993,0.13601 0.27194,0.30597 0.30592,0.50994 0.0336,0.20396 0,0.39091 -0.10196,0.5609 l -6.88387,10.14732 c -0.3399,0.33996 -0.6629,0.50993 -0.96882,0.50993 -0.16999,0 -0.33996,-0.0254 -0.50994,-0.0765 -0.16993,-0.0512 -0.30598,-0.16149 -0.40794,-0.33147 z"
       id="path3153"
       inkscape:connector-curvature="0"
       inkscape:export-filename="/media/fede/Data/Universita/Tesi/mole.io-tesi/presentazione/img/table.png"
       inkscape:export-xdpi="90"
       inkscape:export-ydpi="90" />
    <path
       inkscape:export-ydpi="90"
       inkscape:export-xdpi="90"
       inkscape:export-filename="/media/fede/Data/Universita/Tesi/mole.io-tesi/presentazione/img/table.png"
       inkscape:connector-curvature="0"
       id="path3155"
       d="m 504.68604,474.47022 c -0.16998,-0.10196 -0.25496,-0.26346 -0.25492,-0.48439 -4e-5,-0.22098 0.0849,-0.41647 0.25492,-0.58645 l 1.07083,-0.81586 c 0.37389,-0.37395 0.67987,-0.37395 0.91788,0 l 2.7025,2.6006 5.86405,-8.5666 c 0.068,-0.16999 0.17846,-0.272 0.33147,-0.30598 0.15296,-0.0336 0.31447,5e-5 0.48444,0.10201 l 1.2748,0.81586 c 0.16993,0.13601 0.27194,0.30597 0.30592,0.50994 0.0336,0.20396 0,0.39091 -0.10196,0.5609 l -6.88387,10.14732 c -0.3399,0.33996 -0.6629,0.50993 -0.96882,0.50993 -0.16999,0 -0.33996,-0.0254 -0.50994,-0.0765 -0.16993,-0.0512 -0.30598,-0.16149 -0.40794,-0.33147 z"
       style="font-size:40px;font-style:normal;font-variant:normal;font-weight:normal;font-stretch:normal;line-height:125%;letter-spacing:0px;word-spacing:0px;fill:#000000;fill-opacity:1;stroke:none;display:inline;font-family:metroicons8-3;-inkscape-font-specification:metroicons8-3" />
  </g>
</svg>
