<?xml version="1.0" encoding="UTF-8" standalone="no"?>
<!-- Created with Inkscape (http://www.inkscape.org/) -->

<svg
   xmlns:dc="http://purl.org/dc/elements/1.1/"
   xmlns:cc="http://creativecommons.org/ns#"
   xmlns:rdf="http://www.w3.org/1999/02/22-rdf-syntax-ns#"
   xmlns:svg="http://www.w3.org/2000/svg"
   xmlns="http://www.w3.org/2000/svg"
   xmlns:sodipodi="http://sodipodi.sourceforge.net/DTD/sodipodi-0.dtd"
   xmlns:inkscape="http://www.inkscape.org/namespaces/inkscape"
   width="117.125"
   height="197.15625"
   id="svg2"
   version="1.1"
   inkscape:version="0.48.3.1 r9886"
   sodipodi:docname="mobile.svg">
  <defs
     id="defs4" />
  <sodipodi:namedview
     id="base"
     pagecolor="#ffffff"
     bordercolor="#666666"
     borderopacity="1.0"
     inkscape:pageopacity="0.0"
     inkscape:pageshadow="2"
     inkscape:zoom="1.979899"
     inkscape:cx="144.67344"
     inkscape:cy="134.2803"
     inkscape:document-units="px"
     inkscape:current-layer="layer1"
     showgrid="false"
     inkscape:window-width="1920"
     inkscape:window-height="1011"
     inkscape:window-x="0"
     inkscape:window-y="0"
     inkscape:window-maximized="1"
     fit-margin-top="0"
     fit-margin-left="0"
     fit-margin-right="0"
     fit-margin-bottom="0" />
  <metadata
     id="metadata7">
    <rdf:RDF>
      <cc:Work
         rdf:about="">
        <dc:format>image/svg+xml</dc:format>
        <dc:type
           rdf:resource="http://purl.org/dc/dcmitype/StillImage" />
        <dc:title></dc:title>
      </cc:Work>
    </rdf:RDF>
  </metadata>
  <g
     inkscape:label="Livello 1"
     inkscape:groupmode="layer"
     id="layer1"
     transform="translate(-231.4375,-205.21875)">
    <path
       style="fill:#000000;fill-opacity:1;stroke:none"
       d="m 251.8125,205.21875 c -11.29999,0 -20.375,9.10626 -20.375,20.40625 l 0,156.34375 c 0,11.29999 9.07501,20.40625 20.375,20.40625 l 76.375,0 c 11.29999,0 20.375,-9.10626 20.375,-20.40625 l 0,-156.34375 c 0,-11.29999 -9.07501,-20.40625 -20.375,-20.40625 l -76.375,0 z m 5.40625,9.28125 65.5625,0 c 9.13969,0 16.5,7.36031 16.5,16.5 l 0,125.59375 c 0,9.13969 -7.36031,16.46875 -16.5,16.46875 l -65.5625,0 c -9.13969,0 -16.5,-7.32906 -16.5,-16.46875 l 0,-125.59375 c 0,-9.13969 7.36031,-16.5 16.5,-16.5 z M 290,380.21875 c 4.46313,0 8.09375,3.59937 8.09375,8.0625 0,4.46313 -3.63062,8.09375 -8.09375,8.09375 -4.46313,0 -8.09375,-3.63062 -8.09375,-8.09375 0,-4.46313 3.63062,-8.0625 8.09375,-8.0625 z"
       id="rect2991"
       inkscape:connector-curvature="0" />
  </g>
</svg>
