<?xml version="1.0" encoding="UTF-8" standalone="no"?>
<!-- Created with Inkscape (http://www.inkscape.org/) -->

<svg
   xmlns:dc="http://purl.org/dc/elements/1.1/"
   xmlns:cc="http://creativecommons.org/ns#"
   xmlns:rdf="http://www.w3.org/1999/02/22-rdf-syntax-ns#"
   xmlns:svg="http://www.w3.org/2000/svg"
   xmlns="http://www.w3.org/2000/svg"
   xmlns:sodipodi="http://sodipodi.sourceforge.net/DTD/sodipodi-0.dtd"
   xmlns:inkscape="http://www.inkscape.org/namespaces/inkscape"
   width="744.09448819"
   height="1052.3622047"
   id="svg12396"
   version="1.1"
   inkscape:version="0.48.3.1 r9886"
   sodipodi:docname="New document 13">
  <defs
     id="defs12398" />
  <sodipodi:namedview
     id="base"
     pagecolor="#ffffff"
     bordercolor="#666666"
     borderopacity="1.0"
     inkscape:pageopacity="0.0"
     inkscape:pageshadow="2"
     inkscape:zoom="0.35"
     inkscape:cx="375"
     inkscape:cy="520"
     inkscape:document-units="px"
     inkscape:current-layer="layer1"
     showgrid="false"
     inkscape:window-width="742"
     inkscape:window-height="639"
     inkscape:window-x="0"
     inkscape:window-y="25"
     inkscape:window-maximized="0" />
  <metadata
     id="metadata12401">
    <rdf:RDF>
      <cc:Work
         rdf:about="">
        <dc:format>image/svg+xml</dc:format>
        <dc:type
           rdf:resource="http://purl.org/dc/dcmitype/StillImage" />
        <dc:title></dc:title>
      </cc:Work>
    </rdf:RDF>
  </metadata>
  <g
     inkscape:label="Layer 1"
     inkscape:groupmode="layer"
     id="layer1">
    <path
       inkscape:connector-curvature="0"
       d="m 438.33881,792.63143 -2.5924,-2.5747 -0.868,0 0,0.8387 -0.8384,0 c -0.5809,0.01 -0.9562,-0.059 -1.0909,-0.2111 -0.1361,-0.1352 -0.663,-0.6276 -1.5193,-1.5015 l -0.8501,0 0,0.8563 0,0.8563 0,0.868 0,0.8563 0.8501,1.7243 0.8742,0 c 0.5569,-0.5689 1.1551,-0.8563 1.7243,-0.8563 0.5569,0 1.0026,-0.1408 1.2902,-0.4284 0.2863,-0.2932 0.7156,-0.4396 1.296,-0.4396 0.5691,0 1.1439,0.2876 1.7243,0.868 l 1.7243,0 -1.7243,-0.8563 z m 1.7243,15.9469 -0.868,-0.868 c -0.5631,-0.5631 -1.1613,-0.8505 -1.7243,-0.8505 l 0,-0.8738 -2.5924,0 -0.8384,0 c 0,1.1612 -0.2909,1.7243 -0.8741,1.7243 -2.2991,-0.5631 -3.6654,-0.8505 -4.0877,-0.8505 l -1.5075,0 0,-0.8738 -0.8619,0 c -0.5865,0 -0.8624,-0.2877 -0.8624,-0.8505 l -0.868,0 0,-0.868 c -0.5748,-0.5689 -0.8563,-1.1437 -0.8563,-1.7243 l -0.8619,0 -1.7243,-1.7243 -0.8563,-0.8563 0,-0.868 0,0.868 0,0.8563 -0.868,1.7243 c 0,0.5806 -0.2769,0.868 -0.8741,0.868 l 0,1.7243 c 0,0.5631 -0.2675,0.8505 -0.8502,0.8505 l 0.8502,0 0,0.8738 -0.8502,0 c -0.5692,1.1437 -1.1378,1.7185 -1.7243,1.7185 l 0,-0.868 0,0.868 -0.4223,0 c -0.2909,0 -0.4317,-0.2872 -0.4317,-0.868 l -0.8506,-0.8505 0,-0.8738 0,2.5923 0,0.8563 1.7243,0.868 4.2992,0.8563 4.3167,2.5923 0,-1.7243 0,-0.868 1.7242,-0.8563 3.8709,0 0.868,0.8563 1.7243,0 4.3106,1.7243 0.8562,-0.8563 0,-0.4284 c 0,0 0.2909,-0.1408 0.8681,-0.4396 l 2.5805,0.868 0,-3.4486 0,-1.7185 -0.8562,0.8505 -0.8798,0.868 z m 2.5749,86.6314 c -0.2862,0 -0.563,0.1351 -0.8563,0.4223 l 0,0.4284 0,0.868 0.8563,0 0.8737,0 0,0.8563 0.8506,0 c 2.2991,-4.0117 4.3166,-7.9647 6.0231,-11.8414 1.7243,-3.8885 3.3196,-7.8415 4.7389,-11.8531 l -0.8502,0 -4.3049,5.167 -0.868,0.8563 -2.1466,2.5747 0,1.7243 -0.868,0.8681 -1.7243,2.5923 0,1.2844 -1.7243,4.3107 0,0.8681 0,0.8738 z m 11.6361,-52.1513 c -0.5691,-0.5689 -0.8563,-1.0088 -0.8563,-1.2961 0,-0.2877 -0.2862,-0.7156 -0.868,-1.2962 l 0,0.8563 0.868,0 0,0.868 0,2.5747 c 0.5631,0 0.8563,0.2872 0.8563,0.8739 l 0,-2.5806 z m 2.5923,9.9118 0,0.8563 0.8563,-0.8563 0.8502,-0.868 0,-2.1524 -1.7243,2.1524 0,0.868 z m -16.8033,49.9988 c 0.563,-0.5806 0.8506,-1.0087 0.8506,-1.2961 0,-0.2932 0.2909,-0.7331 0.8563,-1.2962 0,0.5631 -0.2768,0.8563 -0.8563,0.8563 0,-0.2932 -0.136,-0.5806 -0.4269,-0.8563 l -0.4223,0 -1.7243,3.4428 1.7243,-0.8505 z m -129.7331,-148.2605 -2.5806,0.8563 -0.868,1.7185 c 0,0.5806 0.2909,0.8562 0.868,0.8562 l 0.8563,0 c -0.2909,-0.2754 -0.427,-0.563 -0.427,-0.8562 l 0.427,0 0.8506,-1.7185 0.8737,0 0,-0.8563 z m 2.5867,0 0.8562,-0.868 0.8563,-1.7243 -0.8563,0 -3.4429,2.5923 2.5867,0 z m -1.7243,3.4486 c -1.1557,0.5631 -2.0059,0.8505 -2.5867,0.8505 l 0.868,0 0.8563,0 0.8506,3.0204 c 0.5804,0.5748 0.5804,1.1554 0,1.7243 l -0.8506,0.8504 0.8506,0 2.5923,-1.7184 c -1.431,-1.4369 -2.3755,-2.2873 -2.8095,-2.5806 -0.427,-0.2871 -0.3472,-0.7155 0.2158,-1.2961 l 0,-0.8505 z m 123.686,150.4071 c 0,-0.563 0.1549,-0.868 0.4411,-0.868 l 0.4176,0 -0.8563,0 c -0.5687,0.5807 -2.0176,1.4369 -4.2988,2.5923 l 0,0.8681 c -0.5809,0 -0.9384,0.1351 -1.0909,0.4283 -0.1361,0.2876 -0.5161,0.4284 -1.0735,0.4284 l -0.8737,0 0,0.868 -1.7186,3.4428 -3.4486,2.5805 c 0,0.2933 -0.1361,0.4397 -0.427,0.4397 -0.2909,0.2932 -0.7155,0.4284 -1.2959,0.4284 l 0,0.8562 -1.7243,0.8681 -2.5867,2.5805 c 0,0.5748 -0.2815,1.0851 -0.8563,1.5132 -0.5804,0.4284 -1.1495,0.6452 -1.7182,0.6452 l -5.613,3.4485 0,0.8563 -3.4486,0.8563 c -0.8563,0.5748 -1.7243,0.868 -2.5806,0.868 -0.868,0 -1.7243,0.2872 -2.5862,0.8505 l -0.8624,0 -0.4223,0 c -0.2909,0 -0.4269,0.2876 -0.4269,0.8738 -0.5804,0 -1.1552,-0.2932 -1.7243,-0.8738 l -0.8737,0 0,-0.8505 0.8737,-0.868 c 0,-0.5689 0.136,-0.997 0.4269,-1.302 0.2862,-0.2698 0.4129,-0.6979 0.4129,-1.2786 l 0.8741,-0.8562 c 0.5748,-0.5748 0.862,-1.003 0.862,-1.2903 0,-0.2933 0.2909,-0.7214 0.8623,-1.3021 l 0.862,-2.1465 0,-0.8681 0,-0.8562 c 0.5808,-1.4311 1.1495,-3.0909 1.7243,-4.9677 0.5808,-1.8533 1.1495,-3.648 1.7243,-5.3723 l 0,-2.5923 0,-0.868 c 0,-0.563 0.1548,-1.2141 0.4269,-1.9296 0.2768,-0.7272 0.427,-1.3665 0.427,-1.9472 0.5748,0 0.868,-0.1351 0.868,-0.4222 l 0,-0.4284 0.8563,0 0.8624,-2.5923 2.5806,-2.5923 0.868,-6.8914 1.2959,-1.7243 c 0,-0.8563 -0.441,-1.2961 -1.2959,-1.2961 l 0,-0.8563 0,-0.868 0,-0.8504 -0.868,-0.8739 -1.7187,-5.1671 0,-0.8504 2.5867,-6.0409 -1.7187,-1.7243 -3.4486,0 c -0.5804,0 -0.868,-0.4284 -0.868,-1.2962 l -0.8563,-2.5923 -1.7243,0 -1.7243,0 -1.7243,0.868 -0.8619,0 c 0,0.5689 -0.1595,0.8563 -0.427,0.8563 -0.2862,0 -0.4457,-0.2871 -0.4457,-0.8563 l -4.7215,0.8563 -5.1903,0 -3.443,0.868 -0.8502,0 -0.8741,0 -1.7243,-0.868 -4.2988,-2.5747 0,-0.8739 -1.2964,0 0,-0.4284 c 0,0 -0.2909,-0.1351 -0.868,-0.4222 l -0.8563,-1.7243 -1.7243,-0.8681 -0.8502,-0.8562 -2.5984,-4.3166 -1.7182,-1.7185 -0.8562,-0.8563 0,-0.868 0,-0.868 0,-2.1524 -1.7187,-0.8563 0,-1.7243 3.4429,-5.1788 -0.868,-4.3049 -0.8562,-0.868 0,-0.8563 0,-1.7184 2.5744,-5.6128 c 0,-0.563 0.1596,-0.9912 0.4458,-1.2961 0.2862,-0.2872 0.4269,-0.7156 0.4269,-1.2845 0.8507,-0.868 1.5015,-1.8709 1.9472,-3.0146 0.4223,-1.1554 0.9328,-2.1641 1.5014,-3.0204 l 0.8681,0 1.7186,-0.868 4.7328,-3.4486 0.8507,-4.7389 0.8736,0 5.1612,-5.1729 -0.8619,0 -1.7243,0 -0.4176,0 c -0.2862,0 -0.4223,-0.2877 -0.4223,-0.8505 l -0.8741,-2.5923 -0.8502,-0.8563 0,-0.868 0,-4.7447 0,-3.4428 0,-0.8563 0,-0.868 0.8502,0 0.8741,0 0,-0.8504 0.8502,0 0,-0.8563 c 0.5809,0.563 1.1556,0.8563 1.7243,0.8563 l 3.0207,0 c 0.2862,0 0.7155,0.2876 1.2959,0.8504 l 0,-1.7243 0,-0.8504 -1.7299,-1.7243 -1.7187,0 -0.868,0 0,-0.8563 c -0.5687,-0.5923 -0.8563,-1.1612 -0.8563,-1.7243 l 0.8563,-1.7243 -0.8563,0 -0.868,0 0,-1.7184 0,-0.8739 0,-0.868 0,-1.2786 0,1.2786 -1.7243,0.868 -2.5862,0 c -0.5692,0.5689 -0.8446,0.7214 -0.8446,0.434 0,-0.2932 -0.2909,-0.434 -0.8624,-0.434 l 0,-0.868 0,-2.1466 0,-0.8563 0.8624,0 c -0.5808,0 -0.8624,-0.2876 -0.8624,-0.868 l 0,-0.8563 c -0.2909,0 -0.4316,-0.1525 -0.4316,-0.4396 l 0.4316,-0.4284 c 0.5692,-0.5806 1.1378,-0.8563 1.7187,-0.8563 l 0,-0.868 0.868,0 0.8563,0 0.8502,0 c 0,-0.5748 -0.2862,-0.868 -0.8502,-0.868 l 0,-0.8563 c 0.5631,-1.7184 0.8502,-2.7389 0.8502,-3.0146 0,-0.2932 0.2909,-0.4284 0.8741,-0.4284 l 0.8502,0 c 0.5809,0 0.868,0.1352 0.868,0.4284 0,0.2754 0.2862,0.4284 0.8446,0.4284 l 0,0.868 1.7186,0.8504 0.4458,0 c 0,0 0.1548,0.2933 0.4223,0.868 l 0,0.8563 5.6008,5.1847 0,0.8562 0,0.8681 0,-0.8681 c 0.5926,0 0.868,-0.2932 0.868,-0.8562 l 0.8506,0 0.8737,-1.7243 0.8506,0 0.8737,-0.8681 -0.8737,-0.8563 0,-0.868 0,-1.7243 c -1.1439,0 -2.0058,-0.2871 -2.5749,-0.868 l -0.868,-0.8504 -3.0029,-4.3166 c -0.5804,0 -0.8736,-0.1525 -0.8736,-0.4284 0,-0.2871 0.2909,-0.4284 0.8736,-0.4284 l 1.7243,-2.5923 0,-1.2903 1.2786,-3.4486 0,-0.8563 0,-0.868 0.868,-0.8563 0,-0.868 0,-0.8504 0.8506,0 0.8737,0 0.8506,-0.8739 0,-0.8504 0.8737,0 0.8506,0 0.8563,0 1.7243,0.8504 1.7243,0.8739 0.8619,0 0.8624,0 2.5862,0 c 0.5692,0.563 1.1557,0.8504 1.7243,0.8504 l 0.8563,0.868 0,-0.4396 c 0,0 0.2862,-0.1525 0.8563,-0.4284 l 1.2964,0 1.7182,0.868 0,-0.868 -0.8563,0 c -2.2812,-1.4428 -3.6654,-2.2345 -4.0937,-2.3694 -0.4223,-0.1525 -0.9323,-0.2051 -1.5132,-0.2051 l 0,-0.868 -0.8384,-0.8739 0,-0.4222 c 0,0 -0.305,-0.1525 -0.8742,-0.4284 -17.5301,-10.6273 -36.9314,-15.9527 -58.1861,-15.9527 -10.0525,0 -19.8883,1.1436 -29.5125,3.4486 -9.6246,2.3049 -18.6098,6.1758 -26.938,11.6361 l 0.8563,0 0.8506,0 0,0.868 0.8737,0 0,0.8504 0.8506,0 c -0.563,-0.5748 -0.8506,-1.1378 -0.8506,-1.7184 l 0.8506,0 2.598,-1.7243 3.4429,-1.7243 1.296,0 1.7186,0 0.8619,0 c 0,-1.4311 0.2816,-2.1525 0.8624,-2.1525 l 2.5862,-0.868 2.5867,0 c 0,-0.2876 0.1455,-0.4223 0.4223,-0.4223 l 0.4457,0.4223 0.8563,0 c 0,-0.5748 0.1361,-0.8504 0.427,-0.8504 l 0.4317,0 0.8619,0 0.8506,0 0.8563,0 c 0,0.563 0.1455,0.8504 0.4411,0.8504 l 0.4269,0 c 0,0.5806 -0.2909,0.868 -0.868,0.868 l 0.868,0 0.8563,-0.868 0,-0.8504 1.7243,-0.8739 c 0.8502,0 1.5775,0.2933 2.164,0.8739 l 0,0.8504 -0.8737,0.868 0,1.302 -1.2903,0 2.164,0 0,-1.302 1.7186,-1.7184 0.8563,0 1.7182,-1.7243 0.8624,-0.868 0.868,0.868 0,1.7243 c 0.5748,0 0.8563,-0.2933 0.8563,-0.8739 l 0.8619,-0.8504 c 0,-0.5806 0.1595,-0.868 0.427,-0.868 0.2909,0 0.7216,-0.2877 1.2964,-0.8563 l 0.8563,0 0.868,0 c 0,-0.5807 0.2768,-0.868 0.8563,-0.868 0,-0.5807 0.2862,-0.8563 0.868,-0.8563 l 0,-0.4284 c 0,0 0.2768,-0.1525 0.8563,-0.4396 0.5747,-0.5807 0.9909,-0.8505 1.2903,-0.8505 l 0.4269,0 0.8563,0 c 1.4311,0.5631 2.1639,1.4311 2.1639,2.5748 l 0.8563,0 c 0.5631,0 0.868,0.07 0.868,0.2228 0,0.1352 0.1408,0.2173 0.427,0.2173 0,0.2754 0.1408,0.4284 0.427,0.4284 l 0,0.8562 1.7243,0 0.8506,0.8681 0.862,-0.8681 c 0.5865,0 1.4427,-0.5806 2.5867,-1.7243 l 0.868,0 0.8562,0 1.7243,0 1.7182,0 5.6131,0 1.7243,0 c 0.5747,0 1.1434,0.2872 1.7243,0.8681 l 0.8501,0.8562 0,0.8681 c 0.291,0 0.5809,0.1351 0.8742,0.4283 l 0,0.4223 0.8501,0 0.8742,0 1.7182,0 c 0.563,0 0.8563,0.2933 0.8563,0.8739 l 0,0.8504 0,0.868 -0.8563,1.302 -0.8681,0 -0.8501,0 c 0,0.5631 0.136,0.9854 0.4222,1.2903 0.2769,0.2816 0.427,0.7038 0.427,1.2845 l 0,0.868 -0.8506,3.4486 0,0.868 0,0.8504 0,0.434 c 0,0.2872 -0.2909,0.7156 -0.8737,1.2903 0,0.2759 -0.1361,0.5807 -0.427,0.868 l -0.4222,0 c -0.8742,0.5689 -1.8651,0.9971 -3.0207,1.2845 -1.1435,0.2876 -2.4399,0.7155 -3.8765,1.2961 l -1.2964,0 -0.8619,0 -3.4487,1.7243 c -1.1439,0.5748 -2.0001,0.868 -2.5805,0.868 l -0.868,0 0,0.4284 c 0,0.2754 -0.2769,0.4284 -0.8563,0.4284 l -1.7243,1.2903 c -0.8507,0.5806 -1.5836,1.214 -2.1527,1.9472 -0.5748,0.7038 -1.2903,1.5014 -2.1466,2.3694 l -1.7243,1.7243 -2.1639,0 -1.7243,0 -0.8507,-1.7243 -0.8736,0 -0.8507,0 -0.4457,0 c -0.2815,0 -0.4129,-0.2871 -0.4129,-0.868 l -0.868,-4.7389 c 0,-0.5806 0.136,-0.8563 0.4457,-0.8563 l 0.4129,0 0.868,-0.868 -0.868,0 0,-0.8563 0.868,-1.7243 0,-0.868 2.575,-1.7243 1.7243,0 0,-0.8504 -0.8563,0 0,-0.8739 0,-0.8504 0,-0.868 0.8563,-1.7243 -0.8563,-0.8681 -0.8507,0 -2.5923,0 0,-0.8563 -0.8563,0 0,-0.868 0,-0.8562 0,-0.8681 -0.868,0 -1.7182,0.8681 -0.8624,0 c -1.1551,1.1436 -2.3108,1.7242 -3.4486,1.7242 l -1.7182,1.7244 0.8563,0 c 1.4311,1.7243 2.217,2.7272 2.3694,3.0204 0.1408,0.2698 -0.1079,0.4223 -0.6568,0.4223 l -0.8507,1.7243 c 0.8507,1.4369 1.3551,2.2228 1.5075,2.3753 0.1314,0.1351 0.2253,0.4927 0.2253,1.0733 l 0,0.868 c -2.3169,0.8563 -3.6011,1.3489 -3.8887,1.5014 -0.2909,0.1408 -0.7038,0.2229 -1.2842,0.2229 l -0.8681,0 c -1.1556,1.4311 -1.7946,2.2873 -1.9415,2.5747 -0.1407,0.2933 -0.4983,0.4458 -1.0791,0.4458 l -0.8502,0 -0.8741,0 -0.8502,1.7184 0.8502,0.8563 c -0.2816,0.2876 -0.4223,0.7155 -0.4223,1.2961 -0.2815,0.5689 -0.427,1.8592 -0.427,3.8709 l -0.8736,0 0.8736,0 0,0.868 0,0.8563 0,0.4458 c 0,0.2698 -0.2862,0.6979 -0.8736,1.2903 l 2.5979,0.8562 0.8507,0 c 0,0.5689 -0.2769,0.8681 -0.8507,0.8681 l -0.8736,1.7243 c 0.2909,0 0.5804,0.1407 0.8736,0.4283 l 0,0.4284 0,0.4223 c 0,0.5865 -0.2909,1.1495 -0.8736,1.7243 l -0.8507,0.868 c 0.2909,0 0.5748,0.1408 0.8507,0.434 l 0,0.4397 0,0.8504 0,0.868 0,0.8563 0,0.868 0,0.8563 -2.575,0.868 -0.868,0 -0.8563,0 -0.8563,0 -0.8619,0 -0.8563,0 0,-0.868 c -1.4371,-0.5807 -2.2348,-0.8563 -2.3755,-0.8563 l -1.0731,0 0,-1.7243 0.8446,-0.868 0,-1.7243 -4.3049,0 c 0,0.5689 0.2909,0.8739 0.8563,0.8739 0,0.563 -0.1361,0.8504 -0.427,0.8504 -0.2768,0 -0.427,0.2754 -0.427,0.868 l -0.8562,0.8563 -1.2903,0 c 0,0.5806 -0.2909,1.1436 -0.8563,1.7243 l 0.8563,0.868 3.8882,-3.4486 c 0.5574,0 1.1439,0.2815 1.7187,0.8563 l 0,0.868 0,0.8563 0,1.7243 0,0.868 c -1.1613,0.563 -2.0237,0.8563 -2.5923,0.8563 l -0.8681,0 -0.8562,0.868 -2.1466,0.8563 c -2.3052,0 -4.0234,0.5747 -5.1847,1.7184 l -1.7243,0 0,-0.8563 0,-0.8621 0,-0.8563 -3.4486,1.7184 -0.8506,0 -0.8563,0 -0.868,1.7243 0.868,0 0,0.4284 c 0,0.2754 -0.2862,0.4279 -0.868,0.4279 l -0.8563,1.7243 -0.868,0 -4.7272,0.868 -0.868,1.2962 -4.3105,4.299 -1.7243,0 0,3.4603 0,0.8563 c -0.8563,0 -1.7243,0.2759 -2.5806,0.868 -0.868,0.5631 -1.7243,1.132 -2.5923,1.7243 l -3.8709,1.7243 -2.5984,4.7389 c 0,0.8563 -0.1361,1.7243 -0.4223,2.5806 -0.2768,0.868 -0.427,1.7243 -0.427,2.5923 l -0.868,2.5748 0.868,0 c 1.1439,0 1.7243,0.2871 1.7243,0.868 l 0,2.5747 c 0,0.2932 -0.1407,0.5865 -0.441,0.8739 l -0.4317,0 -1.7182,0 c -0.563,0 -0.8563,-0.2876 -0.8563,-0.8739 l -0.8562,-0.8504 0,-0.868 0,0.868 -0.8624,0 -1.7243,0 -0.8563,-0.868 0.8563,-8.6157 -3.4486,-0.8563 0,1.7243 c 0,0.5631 -0.2909,0.8563 -0.8563,0.8563 l -1.7182,0 -1.7243,-1.7243 -2.1701,0 c -1.1439,1.1437 -2.2873,2.8621 -3.4429,5.1671 l -0.8563,0.8738 -0.8619,3.4428 -1.7243,6.8913 1.7243,3.8885 0.8619,0 0.8563,-4.7448 c 0.5808,0 0.868,-0.2876 0.868,-0.868 l 5.5952,0 0.8741,0 c 0.563,-1.4428 0.8384,-2.2345 0.8384,-2.3694 0,-0.1525 0.2863,-0.5103 0.8681,-1.0733 l 2.5805,0 0.8624,0 0.8737,0 c 0.5808,0.563 2.0119,1.431 4.2992,2.5923 0.5804,0.563 1.1613,0.9912 1.7182,1.2786 0.5865,0.2871 1.1674,0.7213 1.7243,1.2961 0,-0.5748 0.2909,-1.1437 0.8741,-1.7243 l 1.2903,0 c 0,-0.2876 0.1596,-0.4223 0.4317,-0.4223 l 0.4223,0.4223 0.868,3.0205 c 0,1.1436 -0.2862,1.7243 -0.868,1.7243 l -0.8563,0 -1.2903,0 1.2903,0 0.8563,0 0.868,0 0.8563,0 0.868,0.868 3.4486,0.8563 0.8563,0 0.8502,0.868 0.4269,0 c 0,0 0.1408,0.2759 0.4458,0.8563 0,-0.5807 0.136,-0.8563 0.4223,-0.8563 l 0.4269,0 0.8563,0 0.427,0 c 0,0 0.1454,0.2759 0.4223,0.8563 l 3.4486,0 0.868,0.868 c 0,0 0.2862,0.1351 0.8741,0.4223 l 0.4223,0 0,0.4283 c 0.2768,0 0.5686,0.1408 0.8563,0.4284 l 0,0.4396 0.868,0.8563 0,0.8681 c 0,1.1436 -0.2909,1.7243 -0.868,1.7243 0.5747,0 0.5747,0.2758 0,0.8562 l 0.868,0 0,2.5865 0,1.7243 0.8562,2.1524 c 0,0.2877 -0.1548,0.5807 -0.4269,0.868 l -0.427,0 0,1.7243 3.4425,0 c 0.5692,0 0.868,0.5631 0.868,1.7243 l 0,0.8505 -0.868,0.8563 0,1.7243 c 0,0.2876 -0.1454,0.5806 -0.4223,0.868 l -0.441,0 -0.8563,0 3.4486,3.4486 3.443,0 0.868,0 0.8563,0.8504 5.1668,2.5923 1.2964,0.8563 2.5923,4.7448 2.5806,1.7243 0.868,0 0,0.868 0,0.8504 0.8502,0 0,0.868 2.5984,1.7243 2.5862,0 8.1875,0.868 0,0.8563 c 1.4254,0.5806 3.009,1.2141 4.7272,1.9472 1.7243,0.7155 3.3139,1.4955 4.745,2.3694 l 0.4457,0 c 0,0 0.1173,0.2872 0.4129,0.8504 l 0.868,5.6128 0,0.8563 -1.7243,3.4427 -0.868,0 -1.7243,3.4486 0,0.868 -0.8507,0 -0.8563,0.8681 0.8563,6.4514 0,3.0205 c 0,1.1554 -0.2909,2.4515 -0.8563,3.8885 l 0,1.7184 -0.868,0 c -0.8619,0.5689 -1.9471,1.1495 -3.2257,1.7243 -1.302,0.563 -2.6627,1.1495 -4.0937,1.7243 l 2.1465,5.5952 c 0.2816,0 0.427,0.1407 0.427,0.4457 0,0.2872 -0.1454,0.4223 -0.427,0.4223 l 0,0.8563 0,0.868 0,0.8563 -0.868,1.7243 0,0.868 -1.2785,1.7243 -0.8737,0 0,0.868 0.8737,0 0,0.8563 0,1.7126 0,0.8738 -1.7243,1.7185 0.8506,0 0,0.8563 0,0.868 c 0.5804,0.5689 1.0792,1.0791 1.5188,1.5073 0.427,0.4223 0.9328,0.9325 1.5014,1.5131 l 0.8681,0.8563 0.8562,0.8504 0.8681,0 0,0.8563 0.8562,0 0.8507,1.7243 1.7243,0.8681 0,0.8562 0.8563,0 1.7243,0 -0.8563,0 c 0,-0.563 0.2862,-1.1319 0.8563,-1.7243 l 0.868,0 0.868,0 0.8563,0.8681 0.8563,0.8562 0,0.8681 0,0.868 -0.8563,0 0,0.8563 -0.8563,0 c 2.5745,0 5.3076,0.1524 8.1875,0.4283 2.8677,0.2872 5.4601,0.4397 7.7474,0.4397 16.0935,0 30.891,-2.9501 44.3922,-8.8385 13.5068,-5.8885 25.1429,-14.1522 34.92,-24.7795 l 0,-0.8563 0,-1.736 c 2.0114,-1.7244 3.1492,-2.7155 3.4425,-3.0029 0.2909,-0.2933 0.427,-0.7214 0.427,-1.302 l 2.5749,-1.7185 1.7947,-2.5806 z m -185.3212,-74.9894 0,-1.2962 -2.5745,7.3312 0,2.5806 1.7243,0 0.8502,0 0.8741,0 c 0,0.5748 0.5687,1.4311 1.7243,2.5923 l 0,0.8563 -0.8741,9.0379 1.7243,1.7243 2.5984,0 0.8502,0 0.8563,0.868 1.7243,-3.4427 0.8623,-0.868 4.3106,-3.0205 1.2903,0 c 0,0.5924 0.1548,0.868 0.4269,0.868 l 0.4411,0 0.8506,0 c 0.5865,-0.5806 1.1613,-0.868 1.7243,-0.868 l 0,0.868 2.598,3.0205 2.5749,0.8504 0.868,0 0.8563,0 4.3105,0 0,0.8739 1.7243,1.7184 0,-0.868 c -0.5747,0 -0.8501,-0.563 -0.8501,-1.7243 l 0,-0.8504 0,-0.868 0,-0.8563 0,-1.2844 c -0.5809,0 -0.8742,-0.2872 -0.8742,-0.868 l 0,-1.7244 0,-0.8562 c -0.2768,0 -0.4222,-0.1464 -0.4222,-0.4397 -0.2816,-0.2876 -0.427,-0.7155 -0.427,-1.2785 l 0,-2.5923 0.8507,0 -0.8507,-0.8681 -0.8736,0 -0.8507,0 -0.8563,0 0,-0.8563 -0.868,0 0,0.4284 c 0,0.2872 -0.2862,0.4284 -0.8563,0.4284 l -1.7243,0 c -0.5748,0 -0.8619,-0.1408 -0.8619,-0.4284 0,-0.2876 -0.2909,-0.4284 -0.8563,-0.4284 l -4.3166,0 -0.8507,0 c -0.8619,-0.2876 -1.507,-0.5102 -1.9293,-0.651 -0.4457,-0.1351 -0.9562,-0.2167 -1.5193,-0.2167 l -1.2959,0 c 0,0.5806 -0.2909,1.1612 -0.8563,1.7243 l -1.7186,0 -0.8737,0 -0.8506,0 c -0.5983,0 -1.0205,-0.1408 -1.3021,-0.4284 -0.2862,0 -0.4222,-0.1351 -0.4222,-0.4284 l -0.8737,-0.868 0,-0.4284 c 0,0 0.2909,-0.1351 0.8737,-0.4283 l 0.8506,-1.7244 0.8737,0 0.8506,0 c 0.5804,0.569 1.4311,0.8563 2.5923,0.8563 l 0.8563,0 0,-0.8563 -3.4486,0 c -0.5748,0 -0.8506,-0.1351 -0.8506,-0.4222 l 0,-0.4575 0,-0.8446 0,-0.868 -0.8737,0 0,0.868 c 0,2.2933 -0.8506,3.4487 -2.5749,3.4487 l -0.8681,-0.8681 c -1.1612,-1.1436 -1.7299,-2.0117 -1.7299,-2.5806 l -0.8624,0 -0.8563,-0.868 0,-1.7184 z m -13.3543,10.3399 c 0.2909,12.9264 2.5979,25.2956 6.8911,37.0666 4.3166,11.771 10.3575,22.3338 18.1054,31.6767 7.7591,9.3487 16.885,17.3134 27.3776,23.9115 10.4749,6.6039 21.8881,11.3487 34.2571,14.2284 l -0.8737,0 c -0.5574,0 -0.8506,-0.1352 -0.8506,-0.4397 l 0,-0.4396 -0.8737,0 -1.2729,-0.8563 -0.8619,0 -0.868,0 0,-0.8563 -0.8563,0 c 0,-0.563 -0.5809,-0.8504 -1.7243,-0.8504 l 0,-0.868 -1.7187,-0.8563 -0.868,-0.868 -0.427,0 c -0.2862,0 -0.4269,-0.2876 -0.4269,-0.8563 l -0.868,-1.2962 c -0.5687,-0.5747 -1.1496,-0.868 -1.7244,-0.868 l 0,-0.8563 c -0.563,0 -0.8562,-0.2871 -0.8562,-0.868 l -2.5924,-0.8563 c -3.7183,-4.0175 -6.3928,-6.8972 -7.9585,-8.6215 -1.5952,-1.7243 -3.9473,-4.4397 -7.1144,-8.1875 -1.4367,-1.7243 -2.8035,-3.5893 -4.0994,-5.5951 -1.2964,-2.0176 -2.6627,-3.8768 -4.0938,-5.6011 -0.868,-0.5806 -1.5192,-1.0029 -1.9471,-1.2961 -0.4223,-0.2872 -0.9328,-0.4284 -1.5014,-0.4284 l -5.1847,-3.8885 c -0.8506,-0.8504 -1.7186,-1.8592 -2.5749,-3.0146 -1.4311,-2.0117 -2.8678,-4.1641 -4.3106,-6.469 l -0.8623,0 -2.164,-3.4428 -4.2931,-2.5806 0,-0.868 -1.7243,-4.7447 0,-0.8504 0,-0.8681 -0.8741,0 0,-0.8563 c 0,-1.1553 -0.2769,-2.0234 -0.8502,-2.5923 l 0.8502,-3.4427 0.8741,-1.7243 0,-1.7243 c -0.5809,-2.0117 -0.8741,-3.6656 -0.8741,-4.9618 0,-1.2844 -0.2769,-2.6627 -0.8502,-4.0937 l 0,-0.8563 0,0.4284 c 0,0.2876 -0.2909,0.4284 -0.8742,0.4284 l -0.8501,0 c -0.5692,0.5747 -0.8563,0.7272 -0.8563,0.4396 0,-0.305 -0.2909,-0.4396 -0.868,-0.4396 l -0.8563,-1.7244 -0.868,0 c 0,-0.563 -0.2862,-0.8562 -0.8446,-0.8562 l -0.8624,-0.868 -0.4269,0 c -0.2863,0 -0.4458,-0.2872 -0.4458,-0.8563 l -0.8502,0 0,-0.868 -3.0207,-7.3195 -1.7243,-0.868 c 0,-0.5631 -0.2815,-0.8563 -0.8502,-0.8563 l -0.8741,-0.8563 0,-0.868 -0.8619,-0.8505 -0.8624,-2.5923 -1.7182,0.8681 0,-0.8681 -0.8975,-0.01 z m 51.7229,-78.4264 c 0,0 0.1408,0.2872 0.427,0.8387 l 0.8562,2.5924 0.8563,0.8562 0.8624,0 0,-0.8562 5.1729,-0.8505 1.7243,-3.4486 0.8563,-0.868 1.7182,0 c 0.5926,-0.5689 0.9445,-0.997 1.0909,-1.2844 0.1454,-0.2872 0.5105,-0.4396 1.0909,-0.4396 0,-0.2933 0.563,-1.2845 1.7186,-3.0029 l -0.868,0 c 0,0.2871 -0.136,0.563 -0.4223,0.8387 l 0,0.4396 -0.4269,0 -0.427,0 c -0.2909,0 -0.427,-0.4284 -0.427,-1.2786 -0.868,0 -1.302,-0.3049 -1.302,-0.868 l -1.7186,0 -0.8681,0 0,0.868 -2.5806,1.2786 c -0.868,0.5806 -1.5835,0.8563 -2.1522,0.8563 -0.5865,0.01 -1.2902,0.305 -2.1583,0.868 l -2.5806,1.7243 0,0.8504 -0.868,0.8739 0.427,0.01 z m 118.5136,5.1671 c 0,0.5689 -0.2862,1.1437 -0.8562,1.7243 l 2.5744,-0.868 c 0.5809,0 0.8742,-0.2872 0.8742,-0.8563 l 3.0028,0 -1.2785,-1.7243 c -0.5809,-0.5748 -0.8742,-1.1554 -0.8742,-1.7184 l -0.8501,0 -1.7243,-0.8681 0,2.5865 -0.8563,0 0,1.7243 z m 9.0555,28.4392 -3.4603,-1.7184 -1.2785,0 -1.7243,-2.1525 0,0.8387 0.4222,0 0,0.4397 c 0,0.3049 0.1408,0.5806 0.4176,0.8562 l 0.868,1.7244 c 0,0.3049 -0.1126,0.5219 -0.2158,0.6451 -0.1408,0.1525 -0.2064,0.3754 -0.2064,0.651 l -0.4458,0.4397 -1.7187,0 0,0.8562 -0.8619,0 c 0,-0.5806 -0.1454,-0.8562 -0.4222,-0.8562 -0.305,0 -0.4411,-0.2872 -0.4411,-0.8563 -0.2768,0 -0.4316,-0.1464 -0.4316,-0.4397 -0.2769,-0.2876 -0.4223,-0.7155 -0.4223,-1.2785 l 0,-0.8681 0,-1.302 c 0,-0.2876 -0.1361,-0.563 -0.427,-0.8504 l -0.441,0 0,-1.7243 0.868,0 -1.7243,0.8504 -0.868,0 -2.5806,0 0,1.7243 -0.8624,1.302 -0.8619,0 -0.8507,0.8681 -0.868,0 -0.8563,0.8387 0.8563,1.7243 0,1.7184 -0.427,0 c -0.2909,0 -0.4269,0.305 -0.4269,0.868 l -2.5924,1.7243 0,0.8563 -3.0145,0 1.7243,0 6.4749,-1.7243 0.8563,0 8.6097,-0.8563 1.7243,-0.868 0.8742,0 2.1465,1.7243 0.8737,0 0,0.4457 c 0,0.2994 0.2815,0.4397 0.8506,0.4397 l 0,0.8504 0,-0.4397 c 0,0 0.2909,-0.1234 0.868,-0.4283 -0.5747,-0.5631 -1.1612,-0.9912 -1.7186,-1.2903 -0.5804,-0.2815 -0.8737,-0.7038 -0.8737,-1.302 l -0.868,0 0,-0.8505 c 0,-0.5806 0.305,-1.1436 0.868,-1.7243 l 0.8737,0 2.5749,0.8563 -0.8563,-0.8563 0,-0.8563 z m 13.7884,3.4486 c 0.868,0 1.2964,0.2876 1.2964,0.8504 l -1.2964,0.8563 c 0.2862,0 0.563,0.088 0.868,0.2229 0.2862,0.1525 0.563,0.2229 0.8389,0.2229 l 0.441,0.4222 -0.868,-2.5923 -1.2964,-0.8504 0,0.868 z m -81.8867,-88.3499 c 17.5306,0 34.1224,3.3783 49.7762,10.1347 15.6595,6.7506 29.2249,15.8647 40.7263,27.3601 11.4954,11.4953 20.6034,25.0727 27.3777,40.7205 6.7503,15.6594 10.1112,32.2573 10.1112,49.7818 0,17.806 -3.3609,34.4743 -10.1112,49.9989 -6.7743,15.5069 -15.8823,29.0139 -27.3777,40.5151 -11.5014,11.4895 -25.0668,20.6037 -40.7263,27.3601 -15.6538,6.7564 -32.2456,10.1287 -49.7762,10.1287 -17.8117,0 -34.4799,-3.3723 -49.9986,-10.1287 -15.507,-6.7564 -29.0082,-15.8706 -40.5035,-27.3601 -11.4954,-11.5012 -20.6212,-25.0082 -27.3721,-40.5151 -6.762,-15.5246 -10.1229,-32.1929 -10.1229,-49.9989 0,-17.5245 3.3609,-34.1224 10.1229,-49.7818 6.7509,-15.6478 15.8767,-29.2252 27.3721,-40.7205 11.4953,-11.4954 24.9965,-20.6095 40.5035,-27.3601 15.5187,-6.7564 32.1869,-10.1347 49.9986,-10.1347 m 14.2284,46.9784 0,-0.868 0,-1.2786 c 0,-0.3049 -0.1408,-0.5806 -0.4411,-0.868 l -0.4363,0 c -0.563,-0.5689 -0.8502,-1.1612 -0.8502,-1.7243 l 0.8502,-0.868 2.5984,0 0.8502,0 0.868,0.868 4.2993,-0.868 0.8736,0 1.7243,1.7361 0.8507,0 0,0.8562 0,0.868 0,1.2786 c -2.5924,1.4311 -4.0938,2.2346 -4.5339,2.3753 -0.4176,0.1352 -0.9267,0.2168 -1.5014,0.2168 l -5.1551,-1.7243 z m 43.0901,118.0853 c -0.563,0 -1.1612,-0.2876 -1.7186,-0.8504 -0.5687,-0.5807 -0.8737,-1.4369 -0.8737,-2.5923 0,-0.5689 0.305,-1.0088 0.8737,-1.3021 0.5574,-0.2871 1.1556,-0.7155 1.7186,-1.2903 l 0.8681,0 c 0.2909,0 0.4982,0.082 0.6334,0.2168 0.1548,0.1408 0.3753,0.2051 0.6625,0.2051 l 0.4269,0.4457 c 0.5692,0.563 0.8507,1.431 0.8507,2.5747 -0.8507,1.7419 -2.0058,2.5923 -3.443,2.5923 m -22.8438,-136.6127 c -1.1556,-0.5806 -1.7187,-1.2961 -1.7187,-2.1641 l 0.8681,-0.8563 1.7243,0 0.8389,0 1.7243,-0.868 1.7182,0.868 0.868,0 c 0.5809,1.4369 0.8563,2.4398 0.8563,3.0204 l 0.868,0 c 0,0.5689 0.1595,0.8563 0.4317,0.8563 0.2815,0 0.1454,0.2876 -0.4317,0.8563 l 0,0.4396 c 0,0.2877 -0.2768,0.4284 -0.868,0.4284 l -0.8563,0 c 0,0.5806 -0.2674,0.868 -0.868,0.868 -1.4311,-0.5806 -2.217,-0.868 -2.3695,-0.868 l -1.073,0 0,-1.7243 0,0.4284 c 0,-0.2933 -0.2768,-0.4284 -0.8507,-0.4284 l -0.8736,0 0,-0.8563 z"
       style="fill:#000000;fill-opacity:1;fill-rule:nonzero;stroke:none"
       id="path3120"
       inkscape:export-filename="/media/fede/Data/Universita/Tesi/mole.io-tesi/presentazione/img/white/world.png"
       inkscape:export-xdpi="175.78912"
       inkscape:export-ydpi="175.78912" />
    <path
       inkscape:connector-curvature="0"
       d="m 458.00301,573.95513 c 3.2697,0 5.9354,-1.1182 8.0196,-3.3321 2.067,-2.2308 3.1229,-4.6762 3.1229,-7.3588 0,-7.4153 -3.7329,-11.1201 -11.1425,-11.1201 -3.2643,0 -5.8623,1.0335 -7.7938,3.1174 -1.9373,2.0727 -2.8915,4.7497 -2.8915,8.0027 0,2.6826 0.9542,5.128 2.8915,7.3588 1.9315,2.2308 4.5295,3.3321 7.7938,3.3321 m 0,-30.7173 c 2.9593,0 5.5626,-1.1917 7.7937,-3.558 2.2251,-2.3776 3.3488,-4.9021 3.3488,-7.5678 l 0,-122.8748 c 0,-3.2699 -1.1237,-5.9356 -3.3488,-8.0196 -2.2311,-2.0839 -4.8344,-3.1231 -7.7937,-3.1231 l -205.6855,0 c -2.9707,0 -5.433,1.0392 -7.3532,3.1231 -1.9373,2.084 -2.8916,4.7497 -2.8916,8.0196 l 0,122.8748 c 0,2.6657 0.9543,5.1902 2.8916,7.5678 1.9202,2.3663 4.3825,3.558 7.3532,3.558 l 205.6855,0 z m 0,-165.1753 c 8.3132,0 15.5874,3.1231 21.8223,9.3524 6.2291,6.2349 9.3466,13.4921 9.3466,21.8223 l 0,142.9069 c 0,4.4446 -0.8187,8.6012 -2.4565,12.4642 -1.6324,3.863 -3.9253,7.2063 -6.8901,10.0188 -2.9706,2.8182 -6.3199,5.1111 -10.0188,6.9071 -3.7162,1.7733 -7.6469,2.6656 -11.8035,2.6656 l -71.6794,0 0,8.9119 c 0,2.9537 -1.0504,5.5573 -3.1175,7.7881 -2.0729,2.2195 -4.4503,3.3321 -7.1218,3.3321 l -40.9618,0 c -3.2815,0 -5.9472,-1.0335 -8.0196,-3.1175 -2.0783,-2.0896 -3.1062,-4.7553 -3.1062,-8.0027 l 0,-8.9119 -71.6792,0 c -8.3246,0 -15.4351,-3.1965 -21.3705,-9.5727 -5.9472,-6.3817 -8.9065,-13.8818 -8.9065,-22.483 l 0,-142.9069 c 0,-8.3302 2.9593,-15.5874 8.9065,-21.8223 5.9354,-6.2293 13.0459,-9.3524 21.3705,-9.3524 l 205.6855,0 z m -20.9188,256 -163.8481,0 0,-8.9119 c 0.5873,-2.0727 1.4797,-3.8573 2.6711,-5.337 0.8869,-1.4853 1.926,-2.8125 3.1233,-4.0098 1.1801,-1.1917 2.5017,-1.7734 4.0039,-1.7734 l 144.2569,0 c 2.6657,0 4.9586,1.1973 6.9014,3.558 1.9201,2.372 2.8915,4.8965 2.8915,7.5622 l 0,8.9119 z"
       style="fill:#000000;fill-opacity:1;fill-rule:nonzero;stroke:none"
       id="path3140"
       inkscape:export-filename="/media/fede/Data/Universita/Tesi/mole.io-tesi/presentazione/img/white/pc.png"
       inkscape:export-xdpi="175.78125"
       inkscape:export-ydpi="175.78125" />
    <path
       inkscape:connector-curvature="0"
       d="m 355.81841,287.48243 c 5.7859,0 10.5066,4.6683 10.5066,10.4719 0,5.7978 -4.7207,10.5067 -10.5066,10.5067 -5.7981,0 -10.5067,-4.7089 -10.5067,-10.5067 0,-5.8036 4.7086,-10.4719 10.5067,-10.4719 m -42.5773,-215.178104 85.1484,0 c 11.8559,0 21.4303,9.556799 21.4303,21.424599 l 0,163.067505 c 0,11.8736 -9.5744,21.3899 -21.4303,21.3899 l -85.1484,0 c -11.862,0 -21.4243,-9.5163 -21.4243,-21.3899 l 0,-163.067505 c 0,-11.8678 9.5623,-21.424599 21.4243,-21.424599 m -7.0199,-12.0589 c -14.6653,0 -26.4517,11.8272 -26.4517,26.504099 l 0,203.009105 c 0,14.6711 11.7864,26.4868 26.4517,26.4868 l 99.1766,0 c 14.6768,0 26.4693,-11.8157 26.4693,-26.4868 l 0,-203.009105 c 0,-14.676899 -11.7925,-26.504099 -26.4693,-26.504099 l -99.1766,0 z"
       style="fill:#000000;fill-opacity:1;fill-rule:nonzero;stroke:none"
       id="path3160"
       inkscape:export-filename="/media/fede/Data/Universita/Tesi/mole.io-tesi/presentazione/img/white/phone.png"
       inkscape:export-xdpi="175.74246"
       inkscape:export-ydpi="175.74246" />
  </g>
</svg>
